HIERARCHY
ROOT Hips
{
	OFFSET 0.00000 0.00000 0.00000
	CHANNELS 6 Xposition Yposition Zposition Zrotation Yrotation Xrotation 
	JOINT RightUpLegDummy
	{
		OFFSET 0 0 0
		CHANNELS 3 Zrotation Yrotation Xrotation
		JOINT RightUpLeg
		{
			OFFSET -3.52197 -3.41223 0.04002
			CHANNELS 3 Zrotation Yrotation Xrotation
			JOINT RightLeg
			{
				OFFSET 0.00006 -17.42390 1.60435
				CHANNELS 3 Zrotation Yrotation Xrotation
				JOINT RightFoot
				{
					OFFSET 0.06153 -16.50078 -1.63901
					CHANNELS 3 Zrotation Yrotation Xrotation
					JOINT RightToes
					{
						OFFSET 0.00298 -1.73825 3.34613
						CHANNELS 3 Zrotation Yrotation Xrotation
						End Site
						{
							OFFSET 0.00480 -0.05416 3.85043
						}
					}
				}
			}
		}
	}
	JOINT SpineDummy
	{
		OFFSET 0 0 0
		CHANNELS 3 Zrotation Yrotation Xrotation
		JOINT Spine
		{
			OFFSET 0.00000 4.68130 0.00000
			CHANNELS 3 Zrotation Yrotation Xrotation
			JOINT Spine1
			{
				OFFSET -0.00000 10.10138 0.05002
				CHANNELS 3 Zrotation Yrotation Xrotation
				JOINT HEadDummy
				{
					OFFSET 0 0 0
					CHANNELS 3 Zrotation Yrotation Xrotation
					JOINT Head
					{
						OFFSET -0.00000 3.43865 0.00438
						CHANNELS 3 Zrotation Yrotation Xrotation
						End Site
						{
							OFFSET -0.11417 5.02924 0.98962
						}
					}
				}
				JOINT LeftShoulder1Dummy
				{
					OFFSET 0 0 0
					CHANNELS 3 Zrotation Yrotation Xrotation
					JOINT LeftShoulder1
					{
						OFFSET 3.53937 -0.14262 -0.08662
						CHANNELS 3 Zrotation Yrotation Xrotation
						JOINT LeftArm
						{
							OFFSET 4.04833 -0.00133 0.12681
							CHANNELS 3 Zrotation Yrotation Xrotation
							JOINT LeftForeArm
							{
								OFFSET 10.33880 -0.01036 -0.55515
								CHANNELS 3 Zrotation Yrotation Xrotation
								JOINT LeftHand
								{
									OFFSET 8.69677 0.07543 0.40060
									CHANNELS 3 Zrotation Yrotation Xrotation
									End Site
									{
										OFFSET 5.28377 -0.21905 0.59205
									}
								}
							}
						}
					}
				}
				JOINT RightShoulderDummy
				{
					OFFSET 0 0 0
					CHANNELS 3 Zrotation Yrotation Xrotation
					JOINT RightShoulder
					{
						OFFSET -3.53937 -0.14262 -0.08660
						CHANNELS 3 Zrotation Yrotation Xrotation
						JOINT RightArm
						{
							OFFSET -4.04833 -0.00133 0.12683
							CHANNELS 3 Zrotation Yrotation Xrotation
							JOINT RightForeArm
							{
								OFFSET -10.37987 -0.01039 -0.55511
								CHANNELS 3 Zrotation Yrotation Xrotation
								JOINT RightHand
								{
									OFFSET -8.67398 0.07538 0.40058
									CHANNELS 3 Zrotation Yrotation Xrotation
									End Site
									{
										OFFSET -5.24810 -0.21916 0.59204
									}
								}
							}
						}
					}
				}
			}
		}
	}
	JOINT LeftUpLegDummy
	{
		OFFSET 0 0 0
		CHANNELS 3 Zrotation Yrotation Xrotation
		JOINT LeftUpLeg
		{
			OFFSET 3.52197 -3.41223 0.04002
			CHANNELS 3 Zrotation Yrotation Xrotation
			JOINT LeftLeg
			{
				OFFSET -0.00012 -17.42399 1.60337
				CHANNELS 3 Zrotation Yrotation Xrotation
				JOINT LeftFoot
				{
					OFFSET -0.09972 -16.50070 -1.63802
					CHANNELS 3 Zrotation Yrotation Xrotation
					JOINT LeftToes
					{
						OFFSET -0.01575 -1.73823 3.34611
						CHANNELS 3 Zrotation Yrotation Xrotation
						End Site
						{
							OFFSET 0.03150 -0.01868 3.85031
						}
					}
				}
			}
		}
	}
}
MOTION
Frames: 9
Frame Time: 0.033333
-0.8746 40.1614 -1.4439 -0.8627 -2.7794 -0.8648 0.0000 0.0000 0.0000 1.5580 -1.7078 1.9322 -1.3126 -5.3153 3.4863 -1.3598 0.0739 -4.2013 0.0000 -0.0000 0.0000 0.0000 0.0000 0.0000 0.9427 -0.3689 1.9289 2.8458 -0.9569 0.1222 -0.0000 0.0000 -0.0000 0.7067 2.2746 -2.7581 -0.0000 0.0000 -0.0000 -34.0327 -2.8801 2.5574 -45.2565 -16.4653 -16.0074 -10.9074 5.0456 50.6872 15.1113 -3.6374 -1.1439 -0.0000 0.0000 -0.0000 34.9809 5.2023 3.5698 40.0209 5.7966 -15.3569 11.1128 -0.2025 25.9340 -13.2064 2.9266 -0.9242 0.0000 0.0000 0.0000 2.4382 2.2774 2.2707 2.2738 9.6669 5.2425 0.2889 0.0164 -5.1224 0.0000 0.0000 -0.0000
-0.8704 40.1614 -1.4516 -0.8627 -2.8051 -0.8511 0.0000 0.0000 0.0000 1.5580 -1.7032 1.8901 -1.3143 -5.2882 3.5121 -1.3598 0.0739 -4.1945 0.0000 -0.0000 0.0000 0.0000 0.0000 0.0000 0.9836 -0.3336 1.9577 2.8129 -0.9128 0.0158 -0.0000 0.0000 -0.0000 0.7422 2.2043 -2.6969 -0.0000 0.0000 -0.0000 -34.0839 -2.9392 2.5844 -45.2029 -16.3859 -15.9755 -10.9417 5.0459 50.6635 15.0940 -3.6108 -1.1442 -0.0000 0.0000 -0.0000 35.0338 5.2152 3.5799 39.9552 5.7212 -15.3751 11.1222 -0.0915 25.4697 -12.7060 2.5061 -0.8451 0.0000 0.0000 0.0000 2.4333 2.2774 2.2487 2.2721 9.6936 5.2396 0.2889 0.0164 -5.1121 0.0000 0.0000 -0.0000
-0.8617 40.1614 -1.4620 -0.8627 -2.8157 -0.8241 0.0000 0.0000 0.0000 1.5517 -1.6985 1.8398 -1.3170 -5.2786 3.5159 -1.3580 0.0738 -4.1735 0.0000 -0.0000 0.0000 0.0000 0.0000 0.0000 1.0554 -0.3015 1.9913 2.7565 -0.8675 -0.1439 -0.0000 0.0000 -0.0000 0.8015 2.0923 -2.6212 -0.0000 0.0000 -0.0000 -34.1653 -3.0090 2.6177 -45.1162 -16.2738 -15.9249 -10.9995 5.0461 50.6337 15.1610 -3.5919 -1.1465 -0.0000 0.0000 -0.0000 35.0785 5.2259 3.5877 39.8904 5.6298 -15.4274 11.1244 0.0129 24.9578 -12.1023 2.0568 -0.7597 0.0000 0.0000 0.0000 2.4225 2.2708 2.2134 2.2708 9.7140 5.2195 0.2889 0.0164 -5.0926 0.0000 0.0000 -0.0000
-0.8528 40.1614 -1.4700 -0.8627 -2.7902 -0.7906 0.0000 0.0000 0.0000 1.5450 -1.6900 1.8032 -1.3263 -5.3075 3.4912 -1.3261 0.0716 -4.1455 0.0000 -0.0000 0.0000 0.0000 0.0000 0.0000 1.1065 -0.3018 1.9822 2.7175 -0.8604 -0.2258 -0.0000 0.0000 -0.0000 0.8188 2.0796 -2.5835 -0.0000 0.0000 -0.0000 -34.1931 -3.0262 2.6272 -45.0964 -16.2333 -15.9296 -11.0068 5.0457 50.6426 15.2651 -3.5834 -1.1536 -0.0000 0.0000 -0.0000 35.0645 5.2191 3.5896 39.8960 5.5999 -15.4719 11.1178 0.0246 24.8241 -11.8985 1.9603 -0.7375 0.0000 0.0000 0.0000 2.4103 2.2591 2.1702 2.2717 9.7005 5.1980 0.2954 0.0160 -5.0758 0.0000 0.0000 -0.0000
-0.8461 40.1614 -1.4779 -0.8627 -2.7691 -0.7694 0.0000 0.0000 0.0000 1.5426 -1.6770 1.7737 -1.3420 -5.3314 3.4808 -1.2925 0.0694 -4.1229 0.0000 -0.0000 0.0000 0.0000 0.0000 0.0000 1.1071 -0.3147 1.9688 2.7272 -0.8749 -0.2539 -0.0000 0.0000 -0.0000 0.7615 2.1685 -2.5856 -0.0000 0.0000 -0.0000 -34.1691 -3.0087 2.6225 -45.1503 -16.2326 -15.9730 -10.9716 5.0467 50.6255 15.2863 -3.5232 -1.1477 -0.0000 0.0000 -0.0000 35.0349 5.2079 3.5890 39.9186 5.6038 -15.4777 11.1129 0.0201 24.8780 -11.9038 1.9606 -0.7379 0.0000 0.0000 0.0000 2.4000 2.2478 2.1353 2.2725 9.6880 5.1892 0.3059 0.0153 -5.0625 0.0000 0.0000 -0.0000
-0.8411 40.1614 -1.4883 -0.8627 -2.7836 -0.7796 0.0000 0.0000 0.0000 1.5394 -1.6667 1.7569 -1.3567 -5.3192 3.4999 -1.2987 0.0697 -4.1107 0.0000 -0.0000 0.0000 0.0000 0.0000 0.0000 1.0629 -0.3209 2.0131 2.7865 -0.8884 -0.3240 -0.0000 0.0000 -0.0000 0.6771 2.2465 -2.6108 -0.0000 0.0000 -0.0000 -34.1785 -3.0053 2.6170 -45.1692 -16.1803 -15.9738 -10.9711 5.0501 50.5136 15.2379 -3.4050 -1.1292 -0.0000 0.0000 -0.0000 35.0344 5.2115 3.5863 39.8789 5.6088 -15.4808 11.1076 -0.0078 24.9130 -11.7784 1.8728 -0.7217 0.0000 0.0000 0.0000 2.3933 2.2474 2.1381 2.2675 9.7042 5.1761 0.2971 0.0159 -5.0464 0.0000 0.0000 -0.0000
-0.8364 40.1614 -1.4992 -0.8627 -2.8093 -0.8160 0.0000 0.0000 0.0000 1.5406 -1.6571 1.7700 -1.3752 -5.3037 3.5119 -1.3268 0.0715 -4.1027 0.0000 -0.0000 0.0000 0.0000 0.0000 0.0000 1.0079 -0.3293 2.0950 2.8598 -0.9052 -0.4241 -0.0000 0.0000 -0.0000 0.6579 2.2780 -2.6351 -0.0000 0.0000 -0.0000 -34.2502 -3.0079 2.6229 -45.0972 -16.0973 -15.9270 -11.0163 5.0531 50.3978 15.2285 -3.3298 -1.1192 -0.0000 0.0000 -0.0000 35.0258 5.2222 3.5817 39.8069 5.6469 -15.5451 11.0870 -0.1945 25.0869 -11.6119 2.0020 -0.7231 0.0000 0.0000 0.0000 2.3954 2.2633 2.1776 2.2431 9.7135 5.1493 0.2805 0.0170 -5.0330 0.0000 0.0000 -0.0000
-0.8321 40.1614 -1.5073 -0.8657 -2.8160 -0.8584 0.0000 0.0000 0.0000 1.5517 -1.6399 1.8128 -1.4016 -5.3178 3.4908 -1.3246 0.0714 -4.0930 0.0000 -0.0000 0.0000 0.0000 0.0000 0.0000 0.9731 -0.3496 2.1493 2.9115 -0.9328 -0.4614 -0.0000 0.0000 -0.0000 0.7307 2.3142 -2.6378 -0.0000 0.0000 -0.0000 -34.3112 -2.9658 2.6099 -45.0159 -16.0901 -15.9044 -11.0401 5.0525 50.4058 15.2885 -3.3672 -1.1284 -0.0000 0.0000 -0.0000 34.9452 5.2169 3.5726 39.8047 5.7260 -15.6726 11.0481 -0.5304 25.4869 -11.6811 2.4982 -0.7739 0.0000 0.0000 0.0000 2.4100 2.2876 2.2216 2.2096 9.6829 5.1332 0.2852 0.0167 -5.0343 0.0000 0.0000 -0.0000
-0.8289 40.1614 -1.5125 -0.8789 -2.8156 -0.8977 0.0000 0.0000 0.0000 1.5696 -1.6248 1.8627 -1.4179 -5.3310 3.4608 -1.2915 0.0692 -4.0815 0.0000 -0.0000 0.0000 0.0000 0.0000 0.0000 0.9511 -0.3706 2.1672 2.9477 -0.9609 -0.4298 -0.0000 0.0000 -0.0000 0.8035 2.3635 -2.6293 -0.0000 0.0000 -0.0000 -34.3081 -2.8816 2.5758 -44.9970 -16.1771 -15.9199 -11.0268 5.0505 50.4761 15.3612 -3.4490 -1.1442 -0.0000 0.0000 -0.0000 34.8173 5.1967 3.5530 39.8833 5.7706 -15.7921 11.0100 -0.7849 25.7876 -11.9327 2.8751 -0.8269 0.0000 0.0000 0.0000 2.4291 2.3055 2.2586 2.1937 9.6492 5.1327 0.3001 0.0157 -5.0430 0.0000 0.0000 -0.0000
